<svg width="526" height="329" viewBox="0 0 526 329" fill="none" xmlns="http://www.w3.org/2000/svg">
<path d="M56.3671 188.007H73.1224V328.5H0.5V0.5H55.8671V187.507V188.007H56.3671Z" fill="white" stroke="black"/>
<path d="M281.836 188.007H299.741V328.5H228.269V0.5H281.336V187.507V188.007H281.836Z" fill="white" stroke="black"/>
<path d="M169.101 188.007H152.346V328.5H224.969V0.5H169.601V187.507V188.007H169.101Z" fill="white" stroke="black"/>
<path d="M469.343 188.007H452.587V328.5H525.21V0.5H469.843V187.507V188.007H469.343Z" fill="white" stroke="black"/>
<path d="M94.8287 187.507V0.5H130.64V187.507V188.007H131.14H149.045V328.5H76.4231V188.007H94.3287H94.8287V187.507Z" fill="white" stroke="black"/>
<path d="M320.297 187.507V0.5H356.684V187.507V188.007H357.184H373.939V328.5H303.042V188.007H319.797H320.297V187.507Z" fill="white" stroke="black"/>
<path d="M395.07 187.507V0.5H431.456V187.507V188.007H431.956H448.712V328.5H377.815V188.007H394.57H395.07V187.507Z" fill="white" stroke="black"/>
<path d="M40.2257 286.649C40.0929 288.484 39.4132 289.93 38.1866 290.984C36.9679 292.039 35.3585 292.567 33.3585 292.567C31.171 292.567 29.4483 291.832 28.1905 290.363C26.9405 288.887 26.3155 286.863 26.3155 284.293V283.25C26.3155 281.609 26.6046 280.164 27.1827 278.914C27.7608 277.664 28.5851 276.707 29.6554 276.043C30.7335 275.371 31.9835 275.035 33.4054 275.035C35.3741 275.035 36.9601 275.563 38.1632 276.617C39.3663 277.672 40.0616 279.152 40.2491 281.059H36.7335C36.6476 279.957 36.339 279.16 35.8077 278.668C35.2843 278.168 34.4835 277.918 33.4054 277.918C32.2335 277.918 31.3546 278.34 30.7686 279.184C30.1905 280.02 29.8936 281.32 29.878 283.086V284.375C29.878 286.219 30.1554 287.567 30.7101 288.418C31.2726 289.27 32.1554 289.695 33.3585 289.695C34.4444 289.695 35.253 289.449 35.7843 288.957C36.3233 288.457 36.6319 287.688 36.7101 286.649H40.2257Z" fill="black"/>
<path d="M105.055 292.332V275.27H110.305C111.805 275.27 113.145 275.609 114.324 276.289C115.512 276.961 116.438 277.922 117.102 279.172C117.766 280.414 118.098 281.828 118.098 283.414V284.199C118.098 285.785 117.77 287.195 117.113 288.43C116.465 289.664 115.547 290.621 114.36 291.301C113.172 291.981 111.832 292.324 110.34 292.332H105.055ZM108.571 278.117V289.508H110.27C111.645 289.508 112.696 289.059 113.422 288.16C114.149 287.262 114.52 285.977 114.535 284.305V283.402C114.535 281.668 114.176 280.356 113.457 279.465C112.738 278.567 111.688 278.117 110.305 278.117H108.571Z" fill="black"/>
<path d="M192.394 284.938H185.644V289.508H193.566V292.332H182.128V275.27H193.542V278.117H185.644V282.184H192.394V284.938Z" fill="black"/>
<path d="M266.016 285.359H259.266V292.332H255.751V275.27H266.86V278.117H259.266V282.524H266.016V285.359Z" fill="black"/>
<path d="M345.174 290.176C344.541 290.934 343.646 291.524 342.49 291.945C341.334 292.359 340.053 292.567 338.646 292.567C337.17 292.567 335.873 292.246 334.756 291.606C333.646 290.957 332.787 290.02 332.178 288.793C331.576 287.567 331.268 286.125 331.252 284.469V283.309C331.252 281.606 331.537 280.133 332.107 278.891C332.686 277.641 333.514 276.688 334.592 276.031C335.678 275.367 336.947 275.035 338.4 275.035C340.424 275.035 342.006 275.52 343.146 276.488C344.287 277.449 344.963 278.852 345.174 280.695H341.752C341.596 279.719 341.248 279.004 340.709 278.551C340.178 278.098 339.443 277.871 338.506 277.871C337.311 277.871 336.4 278.32 335.775 279.219C335.15 280.117 334.834 281.453 334.826 283.227V284.317C334.826 286.106 335.166 287.457 335.846 288.371C336.525 289.285 337.521 289.742 338.834 289.742C340.154 289.742 341.096 289.461 341.658 288.899V285.957H338.459V283.367H345.174V290.176Z" fill="black"/>
<path d="M413.779 288.817H407.615L406.443 292.332H402.704L409.056 275.27H412.314L418.701 292.332H414.962L413.779 288.817ZM408.564 285.969H412.829L410.685 279.582L408.564 285.969Z" fill="black"/>
<path d="M482.37 292.332V275.27H488.346C490.416 275.27 491.987 275.668 493.057 276.465C494.127 277.254 494.663 278.414 494.663 279.945C494.663 280.781 494.448 281.52 494.018 282.16C493.588 282.793 492.991 283.258 492.225 283.555C493.1 283.774 493.788 284.215 494.288 284.879C494.795 285.543 495.049 286.356 495.049 287.317C495.049 288.957 494.526 290.199 493.479 291.043C492.432 291.887 490.94 292.317 489.002 292.332H482.37ZM485.885 284.902V289.508H488.897C489.725 289.508 490.37 289.313 490.831 288.922C491.299 288.524 491.534 287.977 491.534 287.281C491.534 285.719 490.725 284.926 489.108 284.902H485.885ZM485.885 282.418H488.487C490.26 282.387 491.147 281.68 491.147 280.297C491.147 279.524 490.92 278.969 490.467 278.633C490.022 278.289 489.315 278.117 488.346 278.117H485.885V282.418Z" fill="black"/>
<path d="M94.3287 0H56.3671V187.507H94.3287V0Z" fill="black"/>
<path d="M169.101 0H131.14V187.507H169.101V0Z" fill="black"/>
<path d="M319.797 0H281.836V187.507H319.797V0Z" fill="black"/>
<path d="M394.57 0H356.608V187.507H394.57V0Z" fill="black"/>
<path d="M470.493 0H431.956V187.507H470.493V0Z" fill="black"/>
<path d="M78.2238 94.3287V103.113M78.2238 103.113V108.133C81.6267 106.878 87.5574 104.117 84.0573 103.113C80.5572 102.109 78.7099 102.695 78.2238 103.113Z" stroke="white"/>
<path d="M72.157 156.531C72.0574 157.908 71.5476 158.992 70.6277 159.783C69.7137 160.574 68.5066 160.969 67.0066 160.969C65.366 160.969 64.074 160.419 63.1306 159.317C62.1931 158.21 61.7244 156.692 61.7244 154.764V153.982C61.7244 152.752 61.9412 151.668 62.3748 150.73C62.8084 149.793 63.4265 149.075 64.2293 148.577C65.0379 148.073 65.9754 147.821 67.0418 147.821C68.5183 147.821 69.7078 148.217 70.6101 149.008C71.5125 149.799 72.034 150.909 72.1746 152.339H69.5379C69.4734 151.512 69.242 150.915 68.8435 150.546C68.451 150.171 67.8504 149.983 67.0418 149.983C66.1629 149.983 65.5037 150.3 65.0642 150.932C64.6306 151.559 64.408 152.535 64.3963 153.859V154.826C64.3963 156.209 64.6043 157.219 65.0203 157.858C65.4422 158.497 66.1043 158.816 67.0066 158.816C67.8211 158.816 68.4275 158.632 68.826 158.262C69.2303 157.887 69.4617 157.31 69.5203 156.531H72.157ZM78.6082 157.19H76.9119L76.2791 160.794H74.6707L75.3035 157.19H73.3084V155.678H75.5672L76.0066 153.182H73.9676V151.653H76.2791L76.9207 147.997H78.5203L77.8787 151.653H79.5838L80.2254 147.997H81.8338L81.1922 151.653H83.117V153.182H80.9197L80.4803 155.678H82.449V157.19H80.2166L79.5838 160.794H77.9754L78.6082 157.19ZM77.1756 155.678H78.8719L79.3113 153.182H77.6062L77.1756 155.678Z" fill="white"/>
<path d="M139.185 160.794V147.997H143.122C144.247 147.997 145.252 148.252 146.137 148.761C147.027 149.265 147.722 149.986 148.22 150.924C148.718 151.855 148.967 152.916 148.967 154.105V154.694C148.967 155.884 148.721 156.941 148.228 157.867C147.742 158.793 147.054 159.51 146.163 160.02C145.272 160.53 144.268 160.788 143.148 160.794H139.185ZM141.821 150.133V158.676H143.096C144.127 158.676 144.915 158.339 145.46 157.665C146.005 156.991 146.283 156.027 146.295 154.773V154.096C146.295 152.796 146.025 151.811 145.486 151.143C144.947 150.469 144.159 150.133 143.122 150.133H141.821ZM155.611 157.19H153.915L153.282 160.794H151.674L152.307 157.19H150.311V155.678H152.57L153.01 153.182H150.971V151.653H153.282L153.924 147.997H155.523L154.882 151.653H156.587L157.228 147.997H158.837L158.195 151.653H160.12V153.182H157.923L157.483 155.678H159.452V157.19H157.22L156.587 160.794H154.978L155.611 157.19ZM154.179 155.678H155.875L156.314 153.182H154.609L154.179 155.678Z" fill="white"/>
<path d="M297.58 160.166H292.517V165.395H289.88V152.598H298.212V154.734H292.517V158.039H297.58V160.166ZM304.461 161.792H302.765L302.132 165.395H300.524L301.157 161.792H299.162V160.28H301.42L301.86 157.784H299.821V156.254H302.132L302.774 152.598H304.374L303.732 156.254H305.437L306.079 152.598H307.687L307.045 156.254H308.97V157.784H306.773L306.333 160.28H308.302V161.792H306.07L305.437 165.395H303.829L304.461 161.792ZM303.029 160.28H304.725L305.165 157.784H303.459L303.029 160.28Z" fill="white"/>
<path d="M373.628 163.778C373.153 164.346 372.482 164.789 371.615 165.105C370.748 165.416 369.787 165.571 368.732 165.571C367.625 165.571 366.652 165.331 365.814 164.85C364.982 164.364 364.338 163.661 363.881 162.741C363.429 161.821 363.198 160.74 363.186 159.498V158.628C363.186 157.35 363.4 156.246 363.828 155.314C364.262 154.377 364.883 153.662 365.691 153.17C366.506 152.671 367.458 152.422 368.548 152.422C370.065 152.422 371.252 152.786 372.107 153.512C372.963 154.233 373.47 155.285 373.628 156.668H371.061C370.944 155.935 370.683 155.399 370.279 155.059C369.881 154.719 369.33 154.549 368.627 154.549C367.73 154.549 367.048 154.886 366.579 155.56C366.11 156.234 365.873 157.236 365.867 158.566V159.383C365.867 160.725 366.122 161.739 366.632 162.424C367.141 163.11 367.888 163.453 368.873 163.453C369.863 163.453 370.569 163.242 370.991 162.82V160.614H368.592V158.671H373.628V163.778ZM380.492 161.792H378.796L378.163 165.395H376.554L377.187 161.792H375.192V160.28H377.451L377.89 157.784H375.851V156.254H378.163L378.804 152.598H380.404L379.762 156.254H381.468L382.109 152.598H383.718L383.076 156.254H385.001V157.784H382.803L382.364 160.28H384.333V161.792H382.1L381.468 165.395H379.859L380.492 161.792ZM379.059 160.28H380.756L381.195 157.784H379.49L379.059 160.28Z" fill="white"/>
<path d="M447.801 162.758H443.178L442.299 165.395H439.495L444.259 152.598H446.702L451.492 165.395H448.688L447.801 162.758ZM443.89 160.623H447.089L445.48 155.833L443.89 160.623ZM457.407 161.792H455.711L455.078 165.395H453.47L454.103 161.792H452.107V160.28H454.366L454.806 157.784H452.767V156.254H455.078L455.72 152.598H457.319L456.678 156.254H458.383L459.024 152.598H460.633L459.991 156.254H461.916V157.784H459.719L459.279 160.28H461.248V161.792H459.016L458.383 165.395H456.774L457.407 161.792ZM455.975 160.28H457.671L458.11 157.784H456.405L455.975 160.28Z" fill="white"/>
<path d="M64.4118 111.329V98.5318H68.3493C69.4743 98.5318 70.4792 98.7867 71.364 99.2964C72.2546 99.8003 72.9489 100.521 73.447 101.459C73.945 102.39 74.194 103.451 74.194 104.64V105.229C74.194 106.419 73.948 107.476 73.4558 108.402C72.9694 109.328 72.281 110.045 71.3903 110.555C70.4997 111.065 69.4948 111.323 68.3757 111.329H64.4118ZM67.0485 100.668V109.211H68.323C69.3542 109.211 70.1423 108.874 70.6872 108.2C71.2321 107.526 71.5105 106.562 71.5222 105.308V104.631C71.5222 103.331 71.2526 102.346 70.7136 101.678C70.1745 101.004 69.3864 100.668 68.3493 100.668H67.0485Z" fill="white"/>
<path d="M152.996 96.6294V105.414M152.996 105.414V110.434C156.399 109.179 162.33 106.418 158.83 105.414C155.33 104.41 153.483 104.996 152.996 105.414Z" stroke="white"/>
<path d="M146.884 108.083H141.821V111.511H147.763V113.629H139.185V100.832H147.745V102.968H141.821V106.018H146.884V108.083Z" fill="white"/>
<path d="M304.843 96.6294V105.414M304.843 105.414V110.434C308.246 109.179 314.176 106.418 310.676 105.414C307.176 104.41 305.329 104.996 304.843 105.414Z" stroke="white"/>
<path d="M301.156 112.012C300.681 112.581 300.01 113.023 299.143 113.339C298.276 113.65 297.315 113.805 296.26 113.805C295.153 113.805 294.18 113.565 293.342 113.084C292.51 112.598 291.866 111.895 291.409 110.975C290.957 110.055 290.726 108.974 290.714 107.732V106.862C290.714 105.584 290.928 104.48 291.356 103.548C291.789 102.611 292.411 101.896 293.219 101.404C294.034 100.906 294.986 100.657 296.076 100.657C297.593 100.657 298.78 101.02 299.635 101.747C300.491 102.467 300.997 103.519 301.156 104.902H298.589C298.472 104.169 298.211 103.633 297.807 103.293C297.409 102.954 296.858 102.784 296.155 102.784C295.258 102.784 294.576 103.121 294.107 103.794C293.638 104.468 293.401 105.47 293.395 106.8V107.618C293.395 108.959 293.65 109.973 294.16 110.659C294.669 111.344 295.416 111.687 296.401 111.687C297.391 111.687 298.097 111.476 298.519 111.054V108.848H296.12V106.906H301.156V112.012Z" fill="white"/>
<path d="M379.615 96.6294V105.414M379.615 105.414V110.434C383.018 109.179 388.949 106.418 385.449 105.414C381.949 104.41 380.102 104.996 379.615 105.414Z" stroke="white"/>
<path d="M373.028 110.993H368.405L367.526 113.629H364.722L369.486 100.832H371.929L376.719 113.629H373.916L373.028 110.993ZM369.117 108.857H372.316L370.708 104.067L369.117 108.857Z" fill="white"/>
<path d="M455.538 96.6294V105.414M455.538 105.414V110.434C458.941 109.179 464.872 106.418 461.372 105.414C457.872 104.41 456.025 104.996 455.538 105.414Z" stroke="white"/>
<path d="M441.727 113.629V100.832H446.209C447.762 100.832 448.939 101.131 449.742 101.729C450.545 102.321 450.946 103.191 450.946 104.339C450.946 104.966 450.785 105.52 450.463 106C450.141 106.475 449.692 106.824 449.118 107.046C449.774 107.21 450.29 107.541 450.665 108.04C451.046 108.538 451.236 109.147 451.236 109.868C451.236 111.098 450.844 112.03 450.059 112.663C449.273 113.295 448.154 113.618 446.701 113.629H441.727ZM444.363 108.057V111.511H446.622C447.243 111.511 447.727 111.365 448.072 111.072C448.424 110.773 448.6 110.363 448.6 109.841C448.6 108.669 447.993 108.075 446.78 108.057H444.363ZM444.363 106.194H446.314C447.644 106.17 448.31 105.64 448.31 104.603C448.31 104.023 448.14 103.607 447.8 103.355C447.466 103.097 446.935 102.968 446.209 102.968H444.363V106.194Z" fill="white"/>
</svg>
